<?xml version="1.0" standalone="no"?>
<!DOCTYPE svg PUBLIC "-//W3C//DTD SVG 1.1//EN" "http://www.w3.org/Graphics/SVG/1.1/DTD/svg11.dtd" >
<svg xmlns="http://www.w3.org/2000/svg" xmlns:svg="http://www.w3.org/2000/svg" xmlns:xlink="http://www.w3.org/1999/xlink" viewBox="0 0 1024 1024"><path d="M184.73 900.17Q171.94 857.05 200.13 880.62Q236.63 844.98 294.64 819.75Q347.15 795.76 353.57 761.11L372.32 742.81H341.77Q318.25 727.01 299.05 719.37Q249.69 715.81 262.7 729.52Q238.24 682.61 249.1 614.28Q252.83 614.3 258.7 571.33Q231.64 522.37 255.32 451.23Q260.38 412.42 266.29 416.63Q246.16 426.56 276.6 407.96Q327.03 411.51 427.6 429.75Q503.11 422.62 555.79 402.99Q604.94 421.46 607.63 406.38Q600.15 421.32 631.36 395.26Q663.4 405.45 683.6 420.19Q703.08 400.43 700.7 407.28Q768.72 396.34 771.14 427.29Q772.4 430.4 775.54 548.59Q778.21 564.4 759.45 547.45Q785.1 645.17 787.46 680.9Q751.89 706.2 747.74 692.13Q765 723.61 734.75 741.28Q719.54 737.55 698.02 721.1Q647.19 709.34 629.02 739.42Q599.99 734.68 599.82 732.09Q600.87 715.99 595.86 721.16Q606.58 744.79 619.06 774.14Q635.21 810.75 616.56 822.55Q643.36 853.44 622.64 855.03Q655.32 860.49 638.91 855.93Q656.38 857.06 668.46 867.93Q725.42 880.25 758.92 864.16L853.03 873.09L847.5 845.66Q866.25 820.46 851 808.51Q868.45 797.14 862.36 803.6Q880.07 782.05 911.13 827.87Q910.59 810.38 911.72 845.95Q910.99 893.71 906.1 900.58Q917.03 892.34 907.55 935.29L869.37 929.53L796.06 925.9Q801.08 936.63 774.4 951.6Q737.85 924.34 686.02 935.08Q614.41 916.47 584.35 896.76Q560.23 907.07 579.39 861.8Q547.4 839.7 551.18 846.76L542.84 813.22Q557.66 771.4 551.91 769.79L509.88 725.54H470.41L447.17 776.15Q408.3 826.58 359.88 861.68Q324.75 892.32 256.71 896.56Q268.66 924.84 244.95 930.96Q197.44 960.74 190.43 950.38Q212.38 943.73 178.56 946.75Q186.92 954.34 162.42 931.69Q146.36 936.83 156.19 923.94Q157.63 900.13 147.4 901.12Q164.2 887.91 185.66 894.88ZM122.06 187.96Q131.52 173.8 109.35 188.23Q101.62 156.69 145.74 159.31Q172.84 157.05 215.9 149.05Q239.84 144.43 302.22 151.91H471.15L486.57 141.19Q479.97 135.8 455.51 147.46Q461.3 117.78 469.85 116.09Q483.37 107.86 507.52 94.02Q487.99 79.32 488.96 74.46Q512.11 64.69 535.18 93.83Q546.66 79.22 537.63 116.78L560.25 159.11L705.5 174.98Q733.02 159.36 759.09 150.14Q831 173.95 870.16 144.4Q883.7 168.97 889.15 151.71Q897.69 161.61 885.39 168.11Q888.79 189.62 908.28 187.34Q893.83 222.75 902.03 260.58Q891.48 300.65 895.42 311.87Q858.85 328.56 856.37 339.86Q851.83 336.19 863.2 347.59Q818.33 344.25 834.85 332.76Q838.34 307.78 815.35 304.39Q822.04 273.25 800.6 258.46V207.02H767.03Q752.22 219.38 698.6 238.78H489.29L200.73 210.18L188.13 271.9Q177.07 334.24 198.5 344.27Q179.82 328.39 187.67 329.1Q168.66 353.85 165.44 360.5Q136.61 376.91 101.31 299.42Q111.99 253.55 103.16 229.97Q96.3 221.66 104.93 220.93Q107.87 188.3 111.99 195.42Q108.01 204.55 124.04 169.86ZM540.29 305.83Q564.47 297.23 543.74 270.53Q562.74 255.32 560.83 259.08Q603.33 238.48 613.18 270.93Q607.65 291.14 608.74 262.38Q633.69 275.34 702.91 294.42Q749.76 299.79 762.39 285.84Q786.03 274.12 793.33 296.57Q786.4 301.9 771.94 299.02Q774.21 313.95 779.66 303.44Q774.7 343.51 764.88 337.58Q769.3 331.74 763.72 343.47Q762.51 340.9 742.06 362.28Q703.25 328.12 689.34 349.63Q650.9 364.44 619.31 328.88Q613.62 340.72 627.88 346.13Q624.44 359.5 626.28 345.65Q604.55 389.76 615.91 394.85Q604.66 385.17 598.53 388.55Q554.53 403.22 567.72 369.78Q541.57 332.32 558.97 319.05ZM216.39 306.35Q226.41 317.39 222.19 319.71Q234.91 289.74 242.74 295.41Q245.27 268.66 291.58 301.11Q307.31 272.9 305.94 301.81Q390.97 291.93 388.06 276.95Q421.54 274.18 408.52 254.73Q432.86 262.35 404.88 242.81Q411.73 273.15 425.05 244.5Q424.76 280.94 452.93 269.21Q463.88 299.67 465.98 319.63Q469.62 346.83 444.17 366.24Q427.85 396.18 440.27 371.13Q410.78 384.09 415.07 402.78Q391.28 378.61 420.75 364.76Q417.19 363.46 400.7 344.54Q350.35 351.52 315.22 360.24Q273.04 342.82 260.63 323.61Q213.2 345.16 228.6 324.52Q229.77 310.1 213.64 298.99ZM292.5 664.21Q331.19 658.22 364.67 654.63Q387.46 661.34 454.8 687.82Q528.58 657.55 561.34 650.61Q627.13 673.5 631.5 679.6Q689.75 644.12 673.83 661.1Q695.73 641.08 688.93 664.45Q710.53 655.37 697.48 667.44Q707.83 631.47 702.12 667.88Q691.16 639.93 692.03 636.34Q665.93 652.57 611.43 653.12Q588.59 620.77 523.73 637.2Q358.14 651.42 325.98 650.91Q293.57 637.13 293.97 645.35Q310.99 653.15 314.62 679.67ZM324.95 596.52Q342.66 603.32 350.77 604.98Q370.71 604.8 405.22 599.54Q405.05 571.42 467.53 597.15Q528.57 564.35 583.35 579.43H677.74L697.69 549.98Q699.09 545.95 693.38 544.23Q665.04 540.85 627.21 552.58Q525.7 555.35 422.41 572.19Q332.63 547.32 310.15 564.66V585.32Q303.25 562.4 328.85 571.28Q308.84 593.51 341.15 571.43ZM330.45 503.89Q352.03 497.38 437.22 503.16Q469.05 498.8 521.21 495.16Q592.43 500.35 626.81 471.76Q681.27 486.99 691.17 491.05Q691 486.51 718.23 477.49Q699.64 476.41 714.08 475.2Q690.42 466.61 690.69 461.36Q665.52 443.94 667.45 472.6Q671.08 454.03 624.35 445.28Q596.21 449.82 533.54 450.69Q493.07 467.59 424.14 449.66Q342.38 476.14 324.13 459.52Q319.59 484 300.25 481.23Q304.91 469.46 312.72 482.1Q330.95 501.7 316.79 484.83Q312.68 492.32 317.85 511.59ZM718.23 763.69Q730.99 757 737.42 748.06Q729.73 749.7 743.09 761.03Q756.64 775.65 754 773.11Q826.67 809.28 819.45 813.62Q821.36 821.92 795.11 813.4Q830.67 856.21 785.71 867.94Q771.31 844.22 763.33 860.62Q752.62 844.57 744.42 840.4Q747.87 842.08 693.82 806.97Q699.81 809.72 704.8 784.17Q676.02 775.02 700.28 797.12Q674.91 792.19 714.23 754.01Z" fill="black"></path></svg>