<?xml version="1.0" standalone="no"?>
<!DOCTYPE svg PUBLIC "-//W3C//DTD SVG 1.1//EN" "http://www.w3.org/Graphics/SVG/1.1/DTD/svg11.dtd" >
<svg xmlns="http://www.w3.org/2000/svg" xmlns:svg="http://www.w3.org/2000/svg" xmlns:xlink="http://www.w3.org/1999/xlink" viewBox="0 0 1024 1024"><path d="M166.0 887.0Q178.0 875.0 214.0 862.0Q252.0 844.0 293.5 814.5Q335.0 785.0 355.0 756.0L375.0 727.0H324.0Q313.0 728.0 304.0 728.0Q263.0 728.0 253.5 710.0Q244.0 692.0 244.0 622.0Q244.0 598.0 245.0 569.0Q245.0 511.0 247.0 469.5Q249.0 428.0 252.0 423.0Q252.0 416.0 284.5 414.0Q317.0 412.0 434.0 412.0Q508.0 412.0 558.5 410.0Q609.0 408.0 612.0 408.0Q616.0 407.0 635.0 405.0Q654.0 403.0 681.0 403.0Q693.0 402.0 704.0 402.0Q751.0 402.0 761.0 421.5Q771.0 441.0 771.0 543.0Q771.0 552.0 771.0 561.0Q771.0 655.0 768.0 679.5Q765.0 704.0 754.0 711.0Q747.0 722.0 732.5 724.5Q718.0 727.0 679.0 727.0Q652.0 727.0 634.0 729.0Q616.0 731.0 612.0 732.0Q611.0 735.0 611.0 741.0Q611.0 753.0 616.0 781.5Q621.0 810.0 630.0 831.0Q634.0 839.0 640.0 847.0Q646.0 855.0 652.0 857.0Q657.0 858.0 685.0 861.0Q713.0 864.0 751.0 866.0L837.0 867.0L846.0 835.0Q852.0 812.0 860.0 802.0Q868.0 792.0 882.0 792.0Q895.0 794.0 904.0 811.0Q913.0 828.0 913.0 858.0Q913.0 882.0 909.5 893.5Q906.0 905.0 893.0 918.0L875.0 938.0L798.0 939.0Q785.0 939.0 772.0 939.0Q719.0 939.0 666.5 932.0Q614.0 925.0 591.0 912.0Q574.0 902.0 561.5 880.0Q549.0 858.0 546.0 831.0L541.0 801.0Q538.0 783.0 537.0 768.0L529.0 734.0H463.0L438.0 774.0Q409.0 815.0 365.5 853.0Q322.0 891.0 274.0 916.0Q252.0 927.0 232.5 935.0Q213.0 943.0 205.0 945.0Q202.0 946.0 198.0 946.0Q188.0 946.0 175.0 937.5Q162.0 929.0 157.0 911.0Q156.0 908.0 156.0 905.0Q156.0 895.0 166.0 887.0ZM112.0 185.0Q114.0 176.0 115.0 169.0Q115.0 162.0 140.0 159.5Q165.0 157.0 216.0 157.0Q249.0 157.0 297.0 158.0H472.0L468.0 138.0Q467.0 133.0 467.0 128.0Q467.0 119.0 472.0 106.0Q477.0 93.0 488.0 84.0Q497.0 78.0 506.0 78.0Q516.0 78.0 528.0 88.5Q540.0 99.0 547.0 133.0L551.0 158.0L711.0 156.0Q750.0 156.0 779.0 156.0Q822.0 156.0 850.5 157.0Q879.0 158.0 884.0 164.0Q891.0 169.0 891.5 178.5Q892.0 188.0 892.0 196.0Q892.0 212.0 891.0 241.0Q888.0 304.0 881.0 324.5Q874.0 345.0 858.0 345.0Q857.0 345.0 855.0 345.0Q834.0 345.0 826.5 332.5Q819.0 320.0 819.0 290.0Q819.0 283.0 819.0 275.0V225.0H785.0Q767.0 227.0 679.0 227.0H472.0L193.0 228.0L195.0 282.0Q195.0 317.0 193.0 328.5Q191.0 340.0 180.0 347.0Q165.0 359.0 154.0 359.0Q125.0 359.0 119.0 281.0Q117.0 257.0 115.5 235.5Q114.0 214.0 112.0 205.0Q111.0 200.0 111.0 194.0Q111.0 190.0 112.0 185.0ZM549.0 318.0Q549.0 286.0 560.0 270.0Q569.0 255.0 580.5 255.0Q592.0 255.0 603.0 266.0Q609.0 275.0 627.0 278.0Q645.0 281.0 691.0 282.0Q731.0 284.0 752.5 287.0Q774.0 290.0 780.0 293.0Q789.0 302.0 789.5 311.0Q790.0 320.0 790.0 321.0Q790.0 336.0 781.0 344.0Q778.0 345.0 761.5 345.5Q745.0 346.0 736.0 346.0Q718.0 346.0 697.0 345.0Q645.0 345.0 633.0 347.0Q621.0 349.0 621.0 356.0Q621.0 357.0 621.0 358.0Q619.0 383.0 605.5 386.5Q592.0 390.0 588.0 390.0Q571.0 390.0 560.0 371.0Q549.0 351.0 549.0 318.0ZM232.0 317.0Q232.0 316.0 232.0 315.0Q232.0 299.0 246.5 293.5Q261.0 288.0 299.0 288.0Q310.0 288.0 324.0 288.0Q375.0 288.0 389.0 285.0Q403.0 282.0 407.0 273.0Q414.0 263.0 422.0 262.0Q430.0 261.0 432.0 261.0Q442.0 261.0 450.0 270.0Q459.0 281.0 459.0 317.5Q459.0 354.0 450.0 374.0Q443.0 390.0 434.5 390.5Q426.0 391.0 425.0 391.0Q410.0 391.0 403.0 378.0Q398.0 356.0 381.0 350.5Q364.0 345.0 313.0 345.0Q263.0 345.0 247.5 340.0Q232.0 335.0 232.0 319.0Q232.0 318.0 232.0 317.0ZM312.0 664.0Q317.0 671.0 346.0 672.0Q375.0 673.0 454.0 673.0Q510.0 671.0 563.0 669.5Q616.0 668.0 643.0 666.0Q679.0 664.0 689.0 660.5Q699.0 657.0 699.0 651.0Q699.0 651.0 699.0 650.0Q700.0 649.0 700.0 648.0Q700.0 641.0 677.5 639.5Q655.0 638.0 614.0 638.0Q572.0 638.0 506.0 639.0Q364.0 639.0 334.5 643.5Q305.0 648.0 305.0 655.0Q305.0 659.0 312.0 664.0ZM334.0 585.0Q338.0 586.0 345.0 586.0Q360.0 586.0 389.0 583.0Q420.0 581.0 471.0 580.0Q522.0 579.0 574.0 579.0H693.0L691.0 563.0Q691.0 554.0 678.5 551.5Q666.0 549.0 610.0 549.0Q513.0 549.0 421.5 552.5Q330.0 556.0 322.0 561.0V576.0Q322.0 576.0 322.0 577.0Q322.0 583.0 334.0 585.0ZM331.0 493.0Q349.0 495.0 421.0 495.0Q468.0 495.0 523.0 493.0Q578.0 491.0 616.0 491.0Q675.0 488.0 688.0 485.5Q701.0 483.0 701.0 477.0Q701.0 475.0 700.0 473.0Q700.0 466.0 690.5 464.5Q681.0 463.0 667.0 463.0Q653.0 463.0 632.0 464.0Q603.0 464.0 549.0 465.0Q495.0 466.0 441.0 468.0Q355.0 468.0 335.5 470.5Q316.0 473.0 316.0 479.0Q316.0 481.0 317.0 482.0Q316.0 484.0 316.0 485.0Q316.0 491.0 331.0 493.0ZM699.0 767.0Q711.0 755.0 724.0 754.0Q727.0 755.0 737.0 756.5Q747.0 758.0 774.0 777.0Q808.0 803.0 810.5 814.0Q813.0 825.0 813.0 828.0Q813.0 843.0 792.0 848.0Q787.0 849.0 782.0 849.0Q771.0 849.0 754.5 844.0Q738.0 839.0 713.0 822.0Q690.0 808.0 688.5 800.0Q687.0 792.0 687.0 790.0Q687.0 779.0 699.0 767.0Z" fill="black"></path></svg>